<svg width="394" height="398" viewBox="0 0 394 398" fill="none" xmlns="http://www.w3.org/2000/svg">
<path d="M311.153 144.498C346.7 157.807 388.929 126.072 393.265 87.5242C396.734 56.6859 380.462 24.0181 353.174 9.06262C325.886 -5.89289 289.894 -1.73492 266.072 18.3518C253.045 29.4601 242.595 44.6653 226.911 48.1456C206.681 52.3545 185.984 35.3761 164.92 39.3965C137.264 45.4398 131.639 81.9394 133.094 110.378C133.671 127.198 134.06 144.854 127.134 159.978C119.375 174.913 101.801 186.75 86.5286 180.661C72.0897 174.76 66.1323 158.48 61.6532 143.412C55.4291 124.436 50.2277 104.813 37.223 88.696C24.863 73.603 3.67715 62.6628 -15.075 68.0844C-45.1539 77.0934 -53.3919 117.394 -77.8578 136.457C-108.649 160.238 -158.935 146.23 -187.792 173.084C-202.22 186.511 -207.779 207.214 -212.959 226.246C-223.509 265.145 -232.959 306.929 -216.609 343.128C-201.093 379.138 -159.933 402.502 -120.039 396.591C-109.09 394.675 -97.763 391.088 -90.0375 384.051C-76.8207 372.107 -71.8292 353.91 -69.7167 336.82C-66.8482 316.386 -66.6697 296.223 -68.1585 275.683C-70.292 254.119 -74.2818 233.013 -72.247 212.391C-70.0232 190.934 -59.9184 169.502 -41.055 159.713C-16.4337 147.713 13.2778 159.703 34.9971 176.034C56.5273 193.201 75.2563 215.005 99.9658 225.864C110.425 229.986 123.953 232.167 133.535 224.671C138.837 220.6 141.372 213.268 143.717 206.771C155.256 175.122 153.125 87.677 188.172 87.6974C232.768 88.1203 271.626 129.41 311.153 144.498Z" fill="#F1573F"/>
</svg>
