<svg width="61" height="30" viewBox="0 0 61 30" fill="none" xmlns="http://www.w3.org/2000/svg">
<path d="M11.4511 3.19339H2.62357V5.36382H8.02505C8.5189 5.36382 9.01275 5.45818 9.47573 5.64692C9.93872 5.83565 10.3091 6.11875 10.6486 6.46476C10.9881 6.81077 11.2351 7.18823 11.4511 7.66006C11.6363 8.10044 11.7289 8.60372 11.7289 9.10701C11.7289 9.6103 11.6363 10.1136 11.4511 10.554C11.2659 10.9943 10.9881 11.4033 10.6486 11.7493C10.3091 12.0953 9.90785 12.3469 9.47573 12.5671C9.01275 12.7558 8.54976 12.8502 8.02505 12.8502H0.27779V10.1765H9.10534V8.00607H3.673C3.17915 8.00607 2.68531 7.91171 2.25319 7.72297C1.82107 7.53424 1.41982 7.25114 1.0803 6.90513C0.740774 6.55912 0.493849 6.18166 0.27779 5.70983C0.0617311 5.238 0 4.79762 0 4.29433C0 3.79105 0.0925967 3.28776 0.27779 2.81593C0.462984 2.3441 0.740774 1.96663 1.0803 1.62062C1.41982 1.27461 1.7902 1.02297 2.25319 0.802783C2.68531 0.61405 3.17915 0.519684 3.673 0.519684H11.4203V3.19339H11.4511Z" fill="#FF7A00"/>
<path d="M23.6122 0.519684H26.2666V12.8502H23.6122V8.03753H16.3588V12.8817H13.7043V0.519684H16.3588V5.30091H23.6122V0.519684Z" fill="#FF7A00"/>
<path d="M36.051 1.02297C36.7918 1.33753 37.44 1.7779 37.9647 2.3441C38.5203 2.9103 38.9524 3.57086 39.261 4.29433C39.5697 5.04926 39.724 5.83565 39.724 6.68494C39.724 7.53424 39.5697 8.35208 39.261 9.07555C38.9524 9.83049 38.5203 10.491 37.9647 11.0258C37.4091 11.592 36.7609 12.0324 36.051 12.3469C35.3102 12.6615 34.5386 12.8187 33.7052 12.8187C32.8718 12.8187 32.0693 12.6615 31.3594 12.3469C30.6187 12.0324 29.9705 11.592 29.4458 11.0258C28.8902 10.4596 28.4581 9.79903 28.1494 9.07555C27.8408 8.32063 27.6864 7.53424 27.6864 6.68494C27.6864 5.83565 27.8408 5.01781 28.1494 4.29433C28.4581 3.5394 28.8902 2.87884 29.4458 2.3441C30.0014 1.7779 30.6495 1.33753 31.3594 1.02297C32.1002 0.708417 32.8718 0.55114 33.7052 0.55114C34.5386 0.55114 35.3411 0.708417 36.051 1.02297ZM30.2483 3.19339V10.2079H37.1313V3.19339H30.2483Z" fill="#FF7A00"/>
<path d="M6.38917 24.6774H2.65444V29.4901H0V17.1596H8.05592C8.54976 17.1596 9.04361 17.254 9.47573 17.4427C9.90785 17.6314 10.3091 17.9145 10.6486 18.2605C10.9881 18.6065 11.2351 18.984 11.4511 19.4558C11.6363 19.8962 11.7289 20.3995 11.7289 20.9028C11.7289 21.3432 11.6672 21.7521 11.5129 22.161C11.3585 22.5385 11.1733 22.9159 10.9264 23.2305C10.6795 23.545 10.4017 23.8281 10.0622 24.0483C9.72266 24.2685 9.35227 24.4258 8.98188 24.5516L10.9264 29.5216H8.27197L6.38917 24.6774ZM9.10534 22.0037V19.8333H2.65444V22.0037H9.10534Z" fill="#FF7A00"/>
<path d="M22.3467 17.6314C23.0875 17.946 23.7356 18.3864 24.2604 18.9525C24.8159 19.5187 25.2481 20.1793 25.5567 20.9028C25.8654 21.6577 26.0197 22.4441 26.0197 23.2934C26.0197 24.1427 25.8654 24.9605 25.5567 25.684C25.2481 26.4389 24.8159 27.0995 24.2604 27.6342C23.7048 28.2004 23.0566 28.6408 22.3467 28.9554C21.6059 29.2699 20.8343 29.4272 20.0009 29.4272C19.1675 29.4272 18.365 29.2699 17.6551 28.9554C16.9143 28.6408 16.2662 28.2004 15.7415 27.6342C15.1859 27.068 14.7538 26.4075 14.4451 25.684C14.1364 24.9291 13.9821 24.1427 13.9821 23.2934C13.9821 22.4441 14.1364 21.6263 14.4451 20.9028C14.7538 20.1479 15.1859 19.4873 15.7415 18.9525C16.297 18.3864 16.9452 17.946 17.6551 17.6314C18.3959 17.3169 19.1675 17.1596 20.0009 17.1596C20.8343 17.1596 21.6059 17.3169 22.3467 17.6314ZM16.544 19.8333V26.8479H23.427V19.8333H16.544Z" fill="#FF7A00"/>
<path d="M36.051 17.6314C36.7918 17.946 37.44 18.3864 37.9647 18.9525C38.4894 19.5187 38.9524 20.1793 39.261 20.9028C39.5697 21.6577 39.724 22.4441 39.724 23.2934C39.724 24.1427 39.5697 24.9605 39.261 25.684C38.9524 26.4389 38.5203 27.0995 37.9647 27.6342C37.4091 28.169 36.7609 28.6408 36.051 28.9554C35.3102 29.2699 34.5386 29.4272 33.7052 29.4272C32.8718 29.4272 32.0693 29.2699 31.3594 28.9554C30.6187 28.6408 29.9705 28.2004 29.4458 27.6342C28.8902 27.068 28.4581 26.4075 28.1494 25.684C27.8408 24.9291 27.6864 24.1427 27.6864 23.2934C27.6864 22.4441 27.8408 21.6263 28.1494 20.9028C28.4581 20.1479 28.8902 19.4873 29.4458 18.9525C30.0014 18.3864 30.6495 17.946 31.3594 17.6314C32.1002 17.3169 32.8718 17.1596 33.7052 17.1596C34.5386 17.1596 35.3411 17.3169 36.051 17.6314ZM30.2483 19.8333V26.8479H37.1313V19.8333H30.2483Z" fill="#FF7A00"/>
<path d="M55.6506 17.1596H60.8669V29.5216H58.1816V18.0718H57.9656L53.4592 29.5216H48.5516L44.0452 18.0718H43.8291V29.5216H41.1747V17.1596H46.391L50.8973 28.6094H51.1751L55.6506 17.1596Z" fill="#FF7A00"/>
<path d="M46.4836 12.8817H41.2673V0.55114H43.9526V12.0009H44.1686L48.675 0.55114H53.5826L58.089 12.0009H58.3051V0.55114H60.9595V12.9131H55.7432L51.2986 1.43189H51.0208L46.4836 12.8817Z" fill="#FF7A00"/>
</svg>
