<svg width="320" height="324" viewBox="0 0 320 324" fill="none" xmlns="http://www.w3.org/2000/svg">
<path d="M-2.77042 221.01C-30.5103 214.915 -57.6197 241.734 -56.9892 269.161C-56.9892 291.103 -41.228 312.436 -19.7926 320.36C1.64271 328.283 27.4912 322.188 43.2525 305.731C51.4483 297.198 57.7528 285.008 69.1009 281.351C83.6013 276.475 100.624 286.837 115.124 281.351C134.668 274.647 134.668 248.438 131.516 228.324C129.624 216.744 127.102 203.944 130.885 192.973C134.668 181.393 146.646 171.641 158.625 174.688C169.973 177.126 175.647 188.097 180.691 198.459C186.995 211.258 193.3 224.667 204.017 234.419C214.735 244.172 231.127 249.657 244.366 243.562C265.802 234.419 267.063 205.163 283.454 189.316C303.629 169.203 341.456 174.688 360.369 153.355C369.826 142.384 371.717 127.756 373.609 113.738C376.761 85.7005 379.283 54.6158 364.152 30.8451C349.021 7.07445 316.238 -5.11563 288.498 2.19842C280.932 4.63643 273.367 8.29346 267.693 13.779C259.497 23.5311 257.606 36.9402 257.606 49.1302C257.606 63.7583 259.497 77.7769 262.649 92.405C265.802 107.033 271.476 121.661 272.106 136.899C272.737 152.136 267.693 168.593 254.454 177.126C238.062 188.097 214.735 182.612 197.083 172.86C179.43 163.107 163.669 149.089 144.125 144.213C135.929 141.775 125.842 141.775 120.168 147.87C116.385 151.527 115.124 156.403 114.493 161.279C109.45 184.44 119.537 246.61 94.319 249.657C60.2746 252.705 27.4912 227.715 -2.77042 221.01Z" fill="#F15A29"/>
</svg>
