<svg width="694" height="675" viewBox="0 0 694 675" fill="none" xmlns="http://www.w3.org/2000/svg">
<path d="M715.011 173.325C769.464 180.756 818.967 122.548 812.779 66.8166C807.829 22.2317 774.415 -18.6379 731.1 -31.0226C687.785 -43.4073 638.282 -26.0687 611.055 9.84696C596.205 29.6625 586.304 54.4319 565.265 64.3397C538.039 76.7244 503.387 59.3858 474.923 71.7705C437.796 89.1091 441.508 142.363 452.647 181.994C458.834 205.525 465.022 230.295 460.072 253.826C453.884 277.357 432.845 299.649 409.332 295.934C387.055 292.218 373.442 271.164 362.304 251.349C347.453 226.579 333.84 200.571 310.326 181.994C288.05 164.656 254.636 155.987 229.884 169.61C190.282 191.902 191.52 251.349 163.055 286.026C127.166 329.372 51.6742 325.657 19.4974 372.719C3.40905 396.25 2.17148 427.212 0.933909 455.696C-1.54123 513.905 -1.54123 575.828 33.1107 621.652C66.5251 667.475 132.116 687.291 186.569 666.237C201.42 660.044 216.271 651.375 224.934 638.99C239.785 617.936 241.022 590.69 238.547 565.92C236.072 536.197 229.884 507.712 221.221 479.227C211.321 449.504 198.945 421.019 195.232 391.296C191.52 360.334 198.945 326.896 222.459 307.08C253.398 282.311 299.188 289.741 335.078 305.842C370.967 323.18 404.381 347.95 442.746 355.38C458.834 357.857 478.636 356.619 489.774 342.996C495.962 335.565 497.199 324.419 498.437 314.511C504.625 266.21 473.685 143.602 523.188 132.456C586.304 118.832 654.37 164.656 715.011 173.325Z" fill="#FF6B00"/>
</svg>
