<svg width="793" height="758" viewBox="0 0 793 758" fill="none" xmlns="http://www.w3.org/2000/svg">
<path d="M392.038 495.718C351.865 488.834 318.578 523.252 296.77 557.67C274.961 592.089 255.449 631.096 217.571 644.863C167.067 663.22 108.528 625.36 56.8769 643.716C25.886 655.189 4.07751 686.165 0.634066 719.436C-3.95719 760.738 16.7034 803.187 52.2856 822.691C87.8678 843.342 136.076 838.753 167.067 811.218C206.093 776.8 212.979 715.994 248.562 678.134C291.031 632.243 363.343 631.096 425.325 642.569C487.307 654.042 549.289 675.84 611.271 663.22C675.548 650.6 728.348 603.562 758.191 545.051C788.034 487.687 796.068 419.998 791.477 355.75C789.182 309.859 779.999 262.821 751.304 227.256C699.652 163.008 586.019 164.156 535.515 230.697C506.82 268.557 493.046 325.921 447.133 339.688C419.586 347.719 389.743 336.247 370.23 316.743C349.569 297.239 338.091 270.852 328.909 244.465C310.544 193.985 301.361 140.063 276.109 91.8773C250.857 44.8391 206.093 2.38996 152.145 0.0954103C128.041 -1.05186 102.789 8.12633 90.1635 28.7773C83.2766 40.25 80.981 54.0173 80.981 66.6373C80.981 109.086 101.642 151.536 136.076 177.923C180.841 211.194 243.97 215.783 286.439 253.643C315.135 278.883 330.056 316.743 350.717 350.014C371.378 383.285 405.812 413.114 443.69 408.525C473.533 405.083 496.489 380.99 513.706 355.75C530.924 330.51 543.55 302.976 566.506 282.325C588.314 263.968 617.01 253.643 645.705 254.79C664.07 255.938 682.435 262.821 691.617 277.736C697.357 286.914 698.504 298.387 698.504 309.859C700.8 377.549 690.47 446.385 666.366 510.632C656.035 538.167 643.409 565.701 620.453 584.058C507.967 678.134 479.272 509.485 392.038 495.718Z" fill="#F15A29"/>
</svg>
