<svg width="512" height="560" viewBox="0 0 512 560" fill="none" xmlns="http://www.w3.org/2000/svg">
<path d="M438.466 552.911C469.919 538.157 489.577 505.698 496.457 472.255C503.337 438.812 499.406 403.402 495.474 368.976C491.543 334.549 487.611 300.123 494.491 265.697C499.406 243.073 508.252 221.434 511.201 198.811C514.149 176.188 509.235 149.63 491.542 135.86C462.055 112.253 417.825 132.909 389.32 157.499C360.816 182.09 328.38 212.581 291.03 207.663C260.56 203.729 237.953 175.204 225.176 146.679C212.398 118.155 206.5 86.6792 189.791 60.1216C168.167 24.7116 128.851 2.08852 87.569 0.121295C65.9451 -0.862317 44.3212 4.05575 27.6118 17.8263C5.98796 35.5313 -0.892371 66.0233 0.0905328 93.5644C1.07344 127.007 12.8683 160.45 38.4238 182.09C58.0819 198.811 83.6374 205.696 108.21 210.614C169.15 221.434 234.022 218.483 292.996 237.172C351.97 256.844 407.996 309.959 400.132 371.927C394.235 419.14 355.902 454.55 350.987 501.763C346.073 549.96 396.201 572.583 438.466 552.911Z" fill="#FF7A00"/>
</svg>
