<svg width="391" height="336" viewBox="0 0 391 336" fill="none" xmlns="http://www.w3.org/2000/svg">
<path d="M387.468 69.4251C379.999 47.8611 359.433 33.0127 336.973 26.6942C314.914 19.7455 291.361 20.6967 268.838 21.4174C246.315 22.1381 222.762 23.0892 200.703 16.1406C185.73 11.9282 172.132 4.16565 156.986 1.61319C142.24 -1.56939 124.289 0.288959 113.761 11.2927C96.7665 29.6887 107.715 59.66 122.616 80.6405C136.888 101.221 155.961 123.97 150.051 148.53C145.288 168.509 125.497 181.587 105.998 188.656C86.4987 195.724 64.8316 197.875 46.4161 207.402C21.6527 219.973 3.96637 245.008 0.797812 272.197C-0.986817 286.106 0.771493 301.383 8.65004 312.588C19.4978 327.451 39.2709 333.831 57.9053 335.062C80.2556 336.001 103.298 330.301 118.689 314.425C130.647 302.561 136.722 286.07 141.767 269.809C152.95 230.019 153.731 187.153 170.115 148.9C186.498 110.646 224.886 76.652 265.179 85.4617C295.699 91.5964 317.568 119.663 348.489 125.167C380.038 131.072 397.788 98.9967 387.468 69.4251Z" fill="#F15A29"/>
</svg>
