<svg width="347" height="557" viewBox="0 0 347 557" fill="none" xmlns="http://www.w3.org/2000/svg">
<path d="M303.413 412.386C325.1 383.977 338.785 350.021 361.806 322.536C392.433 285.514 437.215 262.253 482.297 247.099C502.219 241.162 523.474 236.15 543.493 237.191C595.641 241.745 638.61 292.264 632.917 344.594C627.836 400.311 575.749 441.217 522.352 455.544C469.159 471 412.289 466.135 357.257 471.43C289.393 476.716 222.85 495.754 162.869 525.263C122.197 545.448 71.972 570.86 33.7013 546.306C8.76831 530.998 -1.67433 499.077 1.12436 469.422C3.92304 439.768 17.7041 412.79 31.8939 388.07C69.6329 319.447 115.278 249.394 123.254 171C127.711 124.723 120.571 72.3834 148.735 34.6412C166.517 10.4368 199.176 -2.46881 229.047 1.45269C259.122 6.50316 285.281 28.5852 296.24 56.9155C308.63 93.1484 296.171 133.878 273.558 163.62C251.15 194.491 220.33 217.557 192.383 243.601C149.536 284.001 113.563 330.152 85.3875 380.721C73.9732 401.441 63.8928 423.086 64.5904 446.278C70.7462 564.087 269.494 456.999 303.413 412.386Z" fill="#F15A29"/>
</svg>
