<svg width="24" height="24" viewBox="0 0 24 24" fill="none" xmlns="http://www.w3.org/2000/svg">
<path d="M21.1201 16.88C20.6819 16.4453 20.1202 16.1563 19.5118 16.0525C18.9033 15.9487 18.2776 16.0352 17.7201 16.3L16.5701 15.16C18.9262 12.6176 20.7036 9.59492 21.7801 6.3C21.9844 5.73077 22.0226 5.11519 21.8904 4.52504C21.7581 3.9349 21.4609 3.3945 21.0332 2.96685C20.6056 2.53921 20.0652 2.24194 19.475 2.10971C18.8849 1.97748 18.2693 2.01573 17.7001 2.22C14.4052 3.29647 11.3825 5.07389 8.84008 7.43L7.70008 6.28C7.93691 5.78309 8.03246 5.2306 7.97627 4.68302C7.92008 4.13543 7.71431 3.61386 7.38149 3.17541C7.04867 2.73696 6.60163 2.39853 6.08932 2.19718C5.57701 1.99582 5.01917 1.9393 4.47689 2.03381C3.9346 2.12832 3.42876 2.37021 3.01477 2.73299C2.60077 3.09578 2.29457 3.56548 2.12969 4.09066C1.9648 4.61585 1.9476 5.17628 2.07995 5.71059C2.21231 6.2449 2.48912 6.7325 2.88008 7.12C3.44215 7.68277 4.2047 7.9993 5.00008 8C5.44368 7.99587 5.88084 7.89341 6.28008 7.7L7.43008 8.84C5.07397 11.3824 3.29655 14.4051 2.22008 17.7C2.03259 18.2684 2.00622 18.8777 2.1439 19.4602C2.28159 20.0427 2.57794 20.5757 3.00008 21C3.28595 21.3048 3.62925 21.55 4.01024 21.7216C4.39123 21.8933 4.8024 21.9879 5.22008 22C5.58646 21.9965 5.95035 21.9393 6.30008 21.83C9.595 20.7535 12.6176 18.9761 15.1601 16.62L16.3001 17.77C16.0632 18.2669 15.9677 18.8194 16.0239 19.367C16.0801 19.9146 16.2859 20.4361 16.6187 20.8746C16.9515 21.313 17.3985 21.6515 17.9108 21.8528C18.4232 22.0542 18.981 22.1107 19.5233 22.0162C20.0656 21.9217 20.5714 21.6798 20.9854 21.317C21.3994 20.9542 21.7056 20.4845 21.8705 19.9593C22.0354 19.4342 22.0526 18.8737 21.9202 18.3394C21.7879 17.8051 21.511 17.3175 21.1201 16.93V16.88ZM5.71008 5.7C5.5231 5.8883 5.26898 5.99462 5.00362 5.99556C4.73825 5.99649 4.48338 5.89198 4.29508 5.705C4.10678 5.51802 4.00046 5.2639 3.99952 4.99854C3.99859 4.73317 4.1031 4.47831 4.29008 4.29C4.47706 4.1017 4.73118 3.99538 4.99654 3.99445C5.26191 3.99351 5.51678 4.09802 5.70508 4.285C5.89338 4.47198 5.9997 4.7261 6.00064 4.99147C6.00157 5.25683 5.89706 5.5117 5.71008 5.7ZM18.3101 4.13C18.4619 4.08001 18.6203 4.05305 18.7801 4.05C18.9341 4.04874 19.0868 4.07816 19.2293 4.13653C19.3718 4.19491 19.5012 4.28107 19.6101 4.39C19.773 4.55923 19.8841 4.7716 19.9302 5.00197C19.9763 5.23235 19.9554 5.47111 19.8701 5.69C19.3418 7.31379 18.627 8.87086 17.7401 10.33L13.6701 6.26C15.1292 5.37305 16.6863 4.65828 18.3101 4.13ZM5.69008 19.87C5.47201 19.9573 5.23311 19.9787 5.00301 19.9315C4.7729 19.8843 4.56171 19.7706 4.39562 19.6045C4.22952 19.4384 4.11583 19.2272 4.06862 18.9971C4.02142 18.767 4.04279 18.5281 4.13008 18.31C4.65836 16.6862 5.37313 15.1291 6.26008 13.67L10.3301 17.74C8.87094 18.627 7.31387 19.3417 5.69008 19.87ZM12.0001 16.59L7.41008 12C7.85571 11.3952 8.33305 10.8144 8.84008 10.26L13.7501 15.17C13.1922 15.6739 12.6081 16.1479 12.0001 16.59ZM15.1501 13.75L10.2501 8.84C10.8077 8.33269 11.3918 7.85535 12.0001 7.41L16.6001 12.01C16.1512 12.6151 15.6705 13.1959 15.1601 13.75H15.1501ZM19.7001 19.75C19.6075 19.8432 19.4975 19.9173 19.3762 19.968C19.255 20.0188 19.125 20.0451 18.9936 20.0456C18.8622 20.046 18.732 20.0206 18.6105 19.9707C18.4889 19.9209 18.3783 19.8476 18.2851 19.755C18.1918 19.6624 18.1178 19.5524 18.067 19.4312C18.0163 19.3099 17.99 19.1799 17.9895 19.0485C17.9891 18.9171 18.0145 18.7869 18.0643 18.6654C18.1142 18.5438 18.1875 18.4332 18.2801 18.34C18.4674 18.1538 18.7209 18.0492 18.9851 18.0492C19.2493 18.0492 19.5027 18.1538 19.6901 18.34C19.8672 18.5229 19.9679 18.7665 19.9716 19.021C19.9753 19.2756 19.8818 19.522 19.7101 19.71L19.7001 19.75Z" fill="#F15A29"/>
</svg>
