<svg width="305" height="404" viewBox="0 0 305 404" fill="none" xmlns="http://www.w3.org/2000/svg">
<path d="M184.238 239.714C165.368 236.388 149.733 253.021 139.489 269.654C129.246 286.288 120.08 305.139 102.289 311.793C78.5669 320.664 51.071 302.367 26.8099 311.238C12.2532 316.783 2.00959 331.753 0.392186 347.832C-1.76436 367.792 7.94009 388.306 24.6533 397.732C41.3665 407.712 64.0103 405.494 78.5669 392.188C96.8976 375.554 100.132 346.168 116.846 327.872C136.794 305.694 170.759 305.139 199.873 310.684C228.986 316.228 258.099 326.763 287.213 320.664C317.404 314.565 342.204 291.832 356.222 263.556C370.24 235.833 374.013 203.121 371.857 172.072C370.779 149.894 366.466 127.161 352.987 109.973C328.726 78.9242 275.352 79.4787 251.63 111.637C238.151 129.933 231.682 157.656 210.116 164.309C197.177 168.19 183.159 162.646 173.994 153.22C164.29 143.795 158.898 131.042 154.585 118.29C145.959 93.8944 141.646 67.8353 129.785 44.5484C117.924 21.816 96.8975 1.30146 71.5581 0.192563C60.2363 -0.361885 48.3753 4.0737 42.4448 14.0538C39.21 19.5983 38.1317 26.2517 38.1317 32.3506C38.1317 52.8652 47.8362 73.3797 64.0103 86.1321C85.0366 102.211 114.689 104.429 134.637 122.726C148.115 134.924 155.124 153.22 164.829 169.299C174.533 185.378 190.707 199.794 208.499 197.576C222.516 195.913 233.299 184.269 241.386 172.072C249.473 159.874 255.404 146.567 266.186 136.587C276.43 127.716 289.908 122.726 303.387 123.28C312.013 123.835 320.639 127.161 324.952 134.369C327.648 138.805 328.187 144.349 328.187 149.894C329.265 182.606 324.413 215.873 313.091 246.922C308.239 260.229 302.308 273.536 291.526 282.407C238.69 327.872 225.212 246.368 184.238 239.714Z" fill="#F15A29"/>
</svg>
