<svg width="1000" height="264" viewBox="0 0 1000 264" fill="none" xmlns="http://www.w3.org/2000/svg">
<g clip-path="url(#clip0_1_65)">
<path d="M959.817 130.832C960.73 100.916 944.661 72.6805 936.443 59.7393C928.225 46.6301 914.164 45.4536 914.164 45.4536C739.587 7.13426 502.191 11.1679 500 11.1679C497.809 11.1679 260.413 7.13425 85.653 45.2855C85.653 45.2855 71.4093 46.6301 63.3743 59.5712C55.1568 72.6805 39.0869 100.916 40 130.832V131V131.168C39.0869 161.084 55.1568 189.319 63.3743 202.26C71.5919 215.37 85.653 216.546 85.653 216.546C260.23 254.697 497.809 250.832 500 250.664C502.191 250.664 739.587 254.697 914.347 216.546C914.347 216.546 928.591 215.201 936.626 202.26C944.661 189.151 960.73 161.084 960 131.168V131C959.817 131 959.817 130.832 959.817 130.832Z" fill="white"/>
<g filter="url(#filter0_d_1_65)">
<path d="M959.817 130.832C960.73 100.916 944.661 72.6805 936.443 59.7393C928.225 46.6301 914.164 45.4536 914.164 45.4536C739.587 7.13426 502.191 11.1679 500 11.1679C497.809 11.1679 260.413 7.13425 85.653 45.2855C85.653 45.2855 71.4093 46.6301 63.3743 59.5712C55.1568 72.6805 39.0869 100.916 40 130.832V131V131.168C39.0869 161.084 55.1568 189.319 63.3743 202.26C71.5919 215.37 85.653 216.546 85.653 216.546C260.23 254.697 497.809 250.832 500 250.664C502.191 250.664 739.587 254.697 914.347 216.546C914.347 216.546 928.591 215.201 936.626 202.26C944.661 189.151 960.73 161.084 960 131.168V131C959.817 131 959.817 130.832 959.817 130.832Z" fill="url(#paint0_linear_1_65)" shape-rendering="crispEdges"/>
</g>
</g>
<defs>
<filter id="filter0_d_1_65" x="29.9627" y="5.04498" width="940.061" height="259.802" filterUnits="userSpaceOnUse" color-interpolation-filters="sRGB">
<feFlood flood-opacity="0" result="BackgroundImageFix"/>
<feColorMatrix in="SourceAlpha" type="matrix" values="0 0 0 0 0 0 0 0 0 0 0 0 0 0 0 0 0 0 127 0" result="hardAlpha"/>
<feOffset dy="4"/>
<feGaussianBlur stdDeviation="5"/>
<feComposite in2="hardAlpha" operator="out"/>
<feColorMatrix type="matrix" values="0 0 0 0 0 0 0 0 0 0 0 0 0 0 0 0 0 0 0.4 0"/>
<feBlend mode="normal" in2="BackgroundImageFix" result="effect1_dropShadow_1_65"/>
<feBlend mode="normal" in="SourceGraphic" in2="effect1_dropShadow_1_65" result="shape"/>
</filter>
<linearGradient id="paint0_linear_1_65" x1="499.993" y1="11.045" x2="499.993" y2="250.847" gradientUnits="userSpaceOnUse">
<stop stop-color="#F0F0F0"/>
<stop offset="1" stop-color="white" stop-opacity="0"/>
</linearGradient>
<clipPath id="clip0_1_65">
<rect width="1000" height="264" fill="white"/>
</clipPath>
</defs>
</svg>
