<svg id="full-logo" viewBox="0 0 364 91" fill="none" xmlns="http://www.w3.org/2000/svg">
<g clip-path="url(#clip0_1_43)">
<path d="M119.381 69.4881L127.936 90.9226H123.234L119.843 82.5655H110.287L106.896 90.9226H102.194L110.749 69.4881H119.381ZM115.296 71.0357H114.911L112.213 77.7679H117.994L115.296 71.0357Z" fill="#F1573F"/>
<path d="M136.49 82.4881V90.9226H131.789V69.4881H136.49V77.7679H142.348L145.662 69.4881H150.363L146.124 80.1667L150.44 90.9226H145.739L142.348 82.4881H136.49Z" fill="#F1573F"/>
<path d="M159.38 82.4881V86.2024H174.177V90.9226H154.756V69.4881H174.177V74.2083H159.38V77.8452H166.47V82.5655H159.38V82.4881Z" fill="#F1573F"/>
<path d="M196.065 82.5655V91H191.364V69.4881H205.545C206.47 69.4881 207.24 69.6429 208.088 70.0298C208.859 70.3393 209.552 70.8036 210.169 71.4226C210.786 72.0417 211.248 72.7381 211.556 73.5119C211.864 74.2857 212.096 75.1369 212.096 76.0655C212.096 76.994 211.942 77.8452 211.556 78.619C211.248 79.3929 210.786 80.0893 210.169 80.7083C209.552 81.3274 208.859 81.7917 208.088 82.1012C207.317 82.4107 206.47 82.6429 205.545 82.6429H196.065V82.5655ZM196.065 77.9226H207.472V74.2083H196.065V77.9226Z" fill="#F1573F"/>
<path d="M228.126 69.4881L236.681 90.9226H231.98L228.589 82.5655H219.032L215.641 90.9226H210.94L219.649 69.4881H228.126ZM224.042 71.0357H223.656L220.959 77.7679H226.739L224.042 71.0357Z" fill="#F1573F"/>
<path d="M251.864 82.5655H245.236V90.9226H240.534V69.4881H254.715C255.64 69.4881 256.488 69.6429 257.259 70.0298C258.029 70.3393 258.723 70.8036 259.339 71.4226C259.956 72.0417 260.418 72.7381 260.727 73.5119C261.035 74.2857 261.266 75.1369 261.266 76.0655C261.266 76.8393 261.112 77.5357 260.881 78.2321C260.65 78.9286 260.264 79.5476 259.879 80.0893C259.416 80.6309 258.954 81.0952 258.338 81.4821C257.721 81.869 257.104 82.1786 256.411 82.3333L259.802 90.9226H255.101L251.864 82.5655ZM256.642 77.9226V74.2083H245.236V77.9226H256.642Z" fill="#F1573F"/>
<path d="M270.283 82.4881V90.9226H265.582V69.4881H270.283V77.7679H276.141L279.455 69.4881H284.156L279.917 80.1667L284.233 90.9226H279.532L276.141 82.4881H270.283Z" fill="#F1573F"/>
<path d="M103.196 69.4881L95.4122 91H89.9403L87.2429 79.3929H86.6263L83.9289 91H78.4569L70.6729 69.4881H76.1448L81.6168 84.4226H82.1563L84.6996 73.6667H89.1696L91.7129 84.4226H92.2524L97.7243 69.4881H103.196Z" fill="#F1573F"/>
<path d="M0 51.3036V0H9.86492V51.3036H0Z" fill="#F1573F"/>
<path d="M109.824 10.6786H81.848V20.6607H96.26C98.418 20.6607 100.422 20.5833 102.349 21.3571C104.275 22.2083 105.894 23.2917 107.281 24.6845C108.668 26.0774 109.824 27.7798 110.595 29.6369C111.443 31.494 111.828 33.5833 111.828 35.6726C111.828 37.8393 111.443 39.8512 110.595 41.7083C109.747 43.5655 108.668 45.2679 107.281 46.6607C105.894 48.0536 104.198 49.2143 102.349 49.9881C100.422 50.8393 98.418 51.2262 96.26 51.2262H71.906V40.7024H100.653V30.7202H86.1639C84.0059 30.7202 82.0021 30.7976 80.1524 30.0238C78.3028 29.1726 76.6072 28.0893 75.22 26.6964C73.8327 25.3036 72.6767 23.6012 71.906 21.744C71.0582 19.8869 70.6729 17.875 70.6729 15.7083C70.6729 13.5417 71.0582 11.5298 71.906 9.59523C72.7538 7.66071 73.8327 6.03571 75.22 4.64285C76.6072 3.25 78.3028 2.08928 80.1524 1.31547C82.0021 0.464282 84.0059 0.0773773 86.1639 0.0773773H109.747V10.6786H109.824Z" fill="#F1573F"/>
<path d="M293.712 51.3036V0H303.577V51.3036H293.712Z" fill="#F1573F"/>
<path d="M141.5 0.0773773H138.802C128.167 0.0773773 119.535 8.74404 119.535 19.4226V32.0357C119.535 42.7143 128.167 51.381 138.802 51.381H141.5C152.136 51.381 160.767 42.7143 160.767 32.0357V19.4226C160.844 8.74404 152.213 0.0773773 141.5 0.0773773ZM149.361 22.5179C148.205 23.7559 146.509 24.5298 145.662 26C143.35 29.869 148.282 35.5179 145.585 39.1548C143.581 41.7857 136.953 42.0952 134.487 39.6964C133.176 38.381 133.022 36.6012 133.253 35.131C133.485 33.6607 134.795 31.6488 134.949 30.1012C135.18 27.7024 134.255 25.6131 133.253 23.2917C132.097 20.5059 131.018 19.3452 130.479 16.0952C130.248 14.9345 130.479 13.0774 131.635 11.375C133.099 9.28571 134.872 8.5119 136.645 8.20238C138.494 7.89285 140.19 7.81547 141.962 8.20238C145.122 8.89881 148.205 10.6786 149.9 13.4643C151.596 16.1726 151.596 20.119 149.361 22.5179Z" fill="#F1573F"/>
<path d="M252.711 51.3036C252.711 51.3036 255.178 51.7679 256.796 49.6012C258.106 47.744 257.567 45.1131 256.18 43.3333C254.792 41.5536 253.097 39.7738 253.097 37.4524C253.097 34.5893 256.102 31.8036 254.869 29.1726C254.33 28.0893 253.251 27.3929 252.557 26.3869C251.555 24.9167 251.787 22.6726 253.174 21.4345C254.561 20.2738 256.873 20.3512 258.029 21.744C260.341 24.5298 257.181 29.3274 259.262 32.3452C261.343 35.2857 266.815 34.0476 268.357 37.2976C268.819 38.2262 268.742 39.3095 268.588 40.3929C268.125 43.5655 266.969 46.9702 268.511 49.756C268.819 50.2976 269.281 50.8393 269.744 51.2262H284.156V0H274.368V33.2738H273.289L252.788 0H242.924V51.3036H252.711Z" fill="#F1573F"/>
<path d="M341.958 0H333.48L311.361 51.3036H321.303H322.151L324.617 45.5C325.311 44.9583 326.159 44.494 326.93 44.2619C329.858 43.1786 333.018 43.3333 336.101 42.7917C339.569 42.1726 343.037 40.625 346.505 41.244C348.817 41.7083 350.744 43.1786 351.977 45.1905C352.902 46.7381 352.825 50.5298 353.981 51.3036C353.981 51.3036 354.058 51.381 354.135 51.381H364.077C364 51.3036 341.958 0 341.958 0ZM329.165 34.4345L337.18 15.8631H338.182L346.197 34.4345H329.165Z" fill="#F1573F"/>
<path d="M20.3464 51.3036C22.3502 51.3036 29.826 51.3036 29.826 51.3036C30.5967 50.7619 30.8279 49.6012 30.5196 47.5119C30.3654 46.4286 30.2113 45.1905 30.6737 44.2619C31.2903 43.1012 32.6005 42.4821 33.6024 41.631C35.9915 39.619 36.6852 35.8274 35.0667 33.119C33.6794 30.875 31.0591 29.6369 29.1323 27.7798C26.8202 25.5357 25.433 22.2857 25.5101 19.0357C25.5101 16.7917 26.589 14.1607 28.8241 13.6964C31.2903 13.1548 33.4482 15.631 34.296 18.0298C35.1438 20.4286 35.452 23.1369 37.2246 24.994C39.1514 27.006 42.1571 27.3155 44.3151 29.0952C46.6271 31.0298 47.3208 34.3571 47.3978 37.375C47.552 40.3929 47.3208 43.5655 48.3227 46.3512C49.6329 49.9881 52.5615 50.9167 55.7214 51.1488H61.5787C61.5787 50.8393 61.5787 -0.154762 61.5787 -0.154762H51.7908V33.119H50.7118L30.2113 -3.72529e-07H20.3464C20.3464 -3.72529e-07 20.3464 50.994 20.3464 51.3036Z" fill="#F1573F"/>
<path d="M170.247 51.3036C170.401 51.3036 170.863 51.3036 171.557 51.3036H175.873C178.262 50.7619 180.343 49.4464 181.268 46.9702C182.27 44.1845 181.345 41.0893 180.189 38.4583C178.956 35.75 177.491 33.119 177.26 30.1786C177.029 27.2381 178.57 23.9107 181.499 23.2917C184.042 22.75 186.586 24.6845 187.742 27.006C188.898 29.3274 189.052 32.0357 189.36 34.5893C189.823 38.4583 190.747 42.3274 192.828 45.5774C194.986 48.8274 198.531 51.1488 202.385 51.2262C206.238 51.3036 210.169 48.5952 210.554 44.7262C210.708 42.9464 210.169 41.0893 210.015 39.3095C209.861 37.4524 210.323 35.4405 211.865 34.4345C212.789 33.8155 213.945 33.8155 214.947 33.2738C216.797 32.3452 217.568 29.9464 217.568 27.8571C217.645 25.7679 217.182 23.6012 217.568 21.5119C217.953 19.4226 219.494 17.3333 221.652 17.3333C224.504 17.3333 225.891 21.0476 225.583 23.9107C225.352 25.9226 224.735 27.9345 223.656 29.6369C222.269 32.0357 220.034 34.5119 220.728 37.2202C221.036 38.4583 221.961 39.3869 222.346 40.625C223.117 42.7143 222.346 45.1131 222.423 47.3571C222.5 49.756 223.579 50.8393 225.12 51.3036H232.365V0H218.57L201.306 40.2381L184.042 0H170.247C170.247 0 170.247 50.9167 170.247 51.3036Z" fill="#F1573F"/>
</g>
<defs>
<clipPath id="clip0_1_43">
<rect width="364" height="91" fill="white"/>
</clipPath>
</defs>
</svg>
