<svg width="60" height="78" viewBox="0 0 60 78" fill="none" xmlns="http://www.w3.org/2000/svg">
<g clip-path="url(#clip0_3_2)">
<path d="M18.9158 64.4944V45.4614H22.5678V64.4944H18.9158Z" fill="#F1573F"/>
<path d="M3.70897 64.4944C3.70897 64.4944 4.62195 64.6664 5.22109 63.8638C5.70611 63.1759 5.5064 62.2013 4.99285 61.542C4.47929 60.8827 3.85162 60.1948 3.85162 59.3635C3.85162 58.303 4.96432 57.271 4.50782 56.2965C4.30811 55.8952 3.90868 55.6372 3.65191 55.2646C3.28101 54.7199 3.3666 53.86 3.88015 53.43C4.3937 53.0001 5.24962 53.0288 5.67758 53.5447C6.56203 54.5766 5.33521 56.3538 6.13407 57.4717C6.9044 58.5609 8.93008 58.1023 9.50069 59.3062C9.67188 59.6502 9.64334 60.0515 9.58628 60.4528C9.4151 61.628 8.98714 62.8892 9.55775 63.9211C9.67188 64.1218 9.84306 64.3224 10.0142 64.4658H15.3495V45.4327H11.7261V57.7583H11.3267L3.7375 45.4327H0.0855713V64.4944H3.70897Z" fill="#F1573F"/>
<path d="M36.776 45.4614H33.6376L25.4493 64.4944H29.1298H29.4436L30.3566 62.3446C30.6134 62.144 30.9272 61.972 31.2125 61.886C32.2967 61.4847 33.495 61.542 34.6077 61.3414C35.8916 61.112 37.1754 60.5388 38.4879 60.7681C39.3438 60.9401 40.057 61.4847 40.5135 62.2299C40.8559 62.8032 40.8274 64.2078 41.2553 64.4944C41.2553 64.4944 41.2839 64.5231 41.3124 64.5231H44.9928C44.9643 64.4944 36.776 45.4614 36.776 45.4614ZM32.0685 58.217L35.0356 51.3089H35.4065L38.3737 58.217H32.0685Z" fill="#F1573F"/>
<path d="M0.0855713 19.033V0H3.70897V19.033H0.0855713Z" fill="#F1573F"/>
<path d="M7.61768 19.033C8.35947 19.033 11.1269 19.033 11.1269 19.033C11.4123 18.8324 11.4978 18.4024 11.3837 17.6285C11.3267 17.2272 11.2696 16.7686 11.4408 16.3959C11.669 15.966 12.1541 15.7366 12.525 15.4213C13.4094 14.6761 13.6662 13.2715 13.067 12.2683C12.5535 11.4084 11.5834 10.9784 10.8702 10.2905C9.98572 9.45919 9.5007 8.2553 9.52923 7.0514C9.52923 6.22014 9.92866 5.24556 10.756 5.07357C11.669 4.87292 12.4679 5.79017 12.7817 6.67876C13.0956 7.56735 13.2097 8.5706 13.8659 9.25854C14.5792 10.0038 15.7204 10.1185 16.4907 10.7777C17.3466 11.4943 17.6034 12.7269 17.6319 13.8448C17.689 14.9627 17.6034 16.1379 17.9743 17.1985C18.4593 18.5457 19.5435 18.8897 20.7133 19.0044H22.8816C22.8816 18.8897 22.8816 -0.028656 22.8816 -0.028656H19.2582V12.2969H18.8588L11.2696 8.18633e-06H7.61768C7.61768 8.18633e-06 7.61768 18.9184 7.61768 19.033Z" fill="#F1573F"/>
<path d="M14.5792 26.6864H4.19399V30.4127H9.52922C10.3281 30.4127 11.0699 30.384 11.7831 30.6707C12.4964 30.986 13.0956 31.3873 13.6376 31.9032C14.1512 32.4192 14.5792 33.0498 14.8645 33.7378C15.1783 34.4257 15.321 35.1996 15.321 35.9736C15.321 36.7762 15.1783 37.5214 14.8645 38.2094C14.5506 38.8973 14.1512 39.5279 13.6376 40.0439C13.1241 40.5598 12.4964 40.9898 11.7831 41.2764C11.0699 41.5917 10.3281 41.7351 9.52922 41.7351H0.542062V37.8367H11.2125V34.1391H5.82024C5.02138 34.1391 4.27958 34.1677 3.59484 33.8811C2.91011 33.5658 2.28243 33.1645 1.76888 32.6485C1.25533 32.1326 0.827369 31.5019 0.542062 30.814C0.228225 30.1261 0.0855713 29.3521 0.0855713 28.5782C0.0855713 27.8043 0.228225 27.0303 0.542062 26.3137C0.855899 25.5971 1.25533 24.9952 1.76888 24.4506C2.28243 23.9346 2.91011 23.5046 3.59484 23.218C4.27958 22.9027 5.04991 22.7594 5.82024 22.7594H14.5506V26.6864H14.5792Z" fill="#F1573F"/>
<path d="M26.3338 22.7594H25.3352C21.398 22.7594 18.174 25.9698 18.174 29.9541V34.6263C18.174 38.582 21.3694 41.8211 25.3352 41.8211H26.3338C30.271 41.8211 33.495 38.6107 33.495 34.6263V29.9541C33.495 25.9698 30.271 22.7594 26.3338 22.7594ZM29.2154 31.072C28.7874 31.5306 28.1597 31.8173 27.8459 32.3619C26.99 33.8237 28.816 35.8876 27.8174 37.2348C27.0756 38.2094 24.6219 38.324 23.709 37.4354C23.2239 36.9481 23.1669 36.2889 23.2525 35.7442C23.3381 35.1996 23.8231 34.4544 23.8801 33.8811C23.9657 32.9925 23.6234 32.2186 23.2525 31.3586C22.8245 30.3267 22.4251 29.8968 22.2254 28.6929C22.1398 28.2629 22.2254 27.575 22.6533 26.9443C23.1954 26.1417 23.8516 25.8838 24.5078 25.7691C25.1926 25.6545 25.8202 25.6258 26.4764 25.7691C27.6462 26.0271 28.7874 26.6864 29.4436 27.7183C30.0713 28.7215 30.0713 30.2121 29.2154 31.072Z" fill="#F1573F"/>
<path d="M36.9757 41.7637C37.0328 41.7637 37.204 41.7637 37.4608 41.7637H39.0585C39.9429 41.5631 40.7133 41.0758 41.0556 40.1585C41.4265 39.1266 41.0842 37.9801 40.6562 37.0055C40.1997 36.0022 39.6576 35.0277 39.572 33.9384C39.4864 32.8492 40.057 31.5879 41.1412 31.3873C42.0827 31.1866 43.0242 31.9033 43.4522 32.7632C43.8802 33.6231 43.9372 34.6264 44.0513 35.6009C44.2225 37.0341 44.5649 38.4674 45.3352 39.6712C46.1341 40.8751 47.4465 41.7351 48.873 41.7637C50.2996 41.7924 51.7832 40.7892 51.9258 39.3559C51.9829 38.6967 51.7832 38.0087 51.7261 37.3495C51.669 36.6615 51.8402 35.8876 52.4108 35.5436C52.7532 35.3143 53.1812 35.3143 53.5521 35.1136C54.2368 34.741 54.5221 33.8811 54.5221 33.1072C54.5506 32.3332 54.3794 31.5306 54.5221 30.7567C54.6648 29.9828 55.2354 29.2088 56.0342 29.2088C57.0899 29.2088 57.6034 30.5847 57.4893 31.6453C57.4037 32.3905 57.1754 33.1358 56.776 33.7664C56.2625 34.655 55.4351 35.5723 55.6919 36.5755C55.806 37.0341 56.1483 37.3781 56.291 37.8367C56.5763 38.6107 56.291 39.4993 56.3195 40.3305C56.3481 41.2191 56.7475 41.6204 57.3181 41.7924H60V22.7307H54.8645L48.4736 37.6361L42.0827 22.7307H36.9472C36.9757 22.7307 36.9757 41.6204 36.9757 41.7637Z" fill="#F1573F"/>
<path d="M12.6106 71.6605L14.836 77.2213H13.6091L12.7247 75.0429H10.2711L9.38661 77.2213H8.15979L10.3852 71.6605H12.6106ZM11.5549 72.0905H11.4693L10.7561 73.839H12.2682L11.5549 72.0905Z" fill="#F1573F"/>
<path d="M17.0614 75.0429V77.2213H15.8345V71.6605H17.0614V73.8103H18.5735L19.4294 71.6605H20.6562L19.5435 74.4409L20.6562 77.25H19.4294L18.5449 75.0715H17.0614V75.0429Z" fill="#F1573F"/>
<path d="M22.9957 75.0429V76.0175H26.8188V77.25H21.7689V71.6605H26.8188V72.8644H22.9957V73.8103H24.8217V75.0429H22.9957Z" fill="#F1573F"/>
<path d="M32.4964 75.0429V77.2213H31.2982V71.6605H34.9786C35.2069 71.6605 35.4351 71.7178 35.6348 71.8038C35.8345 71.8898 36.0057 72.0045 36.1769 72.1764C36.3196 72.3198 36.4622 72.5204 36.5478 72.7211C36.6334 72.9217 36.6905 73.151 36.6905 73.3803C36.6905 73.6097 36.6334 73.839 36.5478 74.0396C36.4622 74.2403 36.3481 74.4123 36.1769 74.5842C36.0343 74.7276 35.8345 74.8709 35.6348 74.9569C35.4351 75.0429 35.2069 75.1002 34.9786 75.1002H32.4964V75.0429ZM32.4964 73.839H35.4636V72.8644H32.4964V73.839Z" fill="#F1573F"/>
<path d="M40.8274 71.6605L43.0528 77.2213H41.826L40.9415 75.0429H38.4594L37.5749 77.2213H36.3481L38.5735 71.6605H40.8274ZM39.7718 72.0905H39.6576L38.9444 73.839H40.4565L39.7718 72.0905Z" fill="#F1573F"/>
<path d="M46.9615 75.0715H45.2496V77.25H44.0513V71.6605H47.7318C47.96 71.6605 48.1883 71.7178 48.388 71.8038C48.5877 71.8898 48.7589 72.0045 48.9301 72.1764C49.0727 72.3198 49.2154 72.5204 49.301 72.7211C49.3866 72.9217 49.4436 73.151 49.4436 73.3803C49.4436 73.581 49.4151 73.753 49.358 73.9536C49.301 74.1256 49.2154 74.2976 49.1013 74.4409C48.9871 74.5842 48.8445 74.6989 48.7018 74.8136C48.5592 74.9282 48.388 74.9855 48.2168 75.0429L49.1013 77.2787H47.903L46.9615 75.0715ZM48.2168 73.839V72.8644H45.2496V73.839H48.2168Z" fill="#F1573F"/>
<path d="M51.7261 75.0429V77.2213H50.4993V71.6605H51.7261V73.8103H53.2382L54.0941 71.6605H55.3209L54.2083 74.4409L55.3209 77.25H54.0941L53.2097 75.0715H51.7261V75.0429Z" fill="#F1573F"/>
<path d="M8.44508 71.6605L6.4194 77.25H5.0214L4.30813 74.2403H4.13695L3.42368 77.25H2.02568L0 71.6605H1.398L2.79601 75.5302H2.93866L3.59486 72.7211H4.76462L5.42083 75.5302H5.56348L6.96148 71.6605H8.44508Z" fill="#F1573F"/>
</g>
<defs>
<clipPath id="clip0_3_2">
<rect width="60" height="77.25" fill="white"/>
</clipPath>
</defs>
</svg>
