<svg width="78" height="78" viewBox="0 0 78 78" fill="none" xmlns="http://www.w3.org/2000/svg">
<path d="M61.2576 19.1159C60.6679 18.4653 60.2748 17.7865 60.0221 17.1359C59.7693 16.4854 59.6851 15.8631 59.7974 15.2692C59.8817 14.7035 60.1625 14.1943 60.5837 13.7701L61.9877 15.3823C61.7069 15.7217 61.5946 16.1177 61.6788 16.5703C61.7631 17.0228 62.0439 17.5036 62.4932 18.0411C62.9425 18.5502 63.3356 18.8613 63.7287 19.0027C64.1219 19.1442 64.4308 19.1159 64.7116 18.8613C64.9643 18.635 65.0205 18.3805 64.9362 18.0411C64.852 17.7016 64.5712 17.2774 64.1219 16.7682L63.0829 15.5803L64.1499 14.6469L65.1609 15.8066C65.4417 16.1177 65.6944 16.344 65.919 16.4854C66.1437 16.6268 66.3683 16.7117 66.5649 16.7117C66.7615 16.7117 66.93 16.6551 67.0704 16.5137C67.2388 16.3723 67.3231 16.1743 67.3512 15.9763C67.3792 15.75 67.3231 15.5237 67.1827 15.2692C67.0704 15.0146 66.8738 14.7317 66.6211 14.4489C66.1999 13.9681 65.7786 13.6569 65.3574 13.5438C64.9362 13.4024 64.5431 13.4589 64.2061 13.6852L62.8021 12.1013C63.2233 11.7619 63.7287 11.5921 64.2904 11.5356C64.852 11.5073 65.4417 11.6487 66.0595 11.9598C66.6772 12.271 67.295 12.7518 67.8847 13.4307C68.4182 14.0246 68.7833 14.6186 69.036 15.1843C69.2888 15.75 69.373 16.2874 69.3168 16.7682C69.2607 17.2491 69.0641 17.6451 68.7271 17.9562C68.4463 18.2108 68.1094 18.3522 67.7162 18.4088C67.3231 18.437 66.9019 18.3522 66.4245 18.1259C65.9752 17.8996 65.4978 17.4754 64.9924 16.8814L65.1609 16.74C65.6663 17.2774 66.0314 17.7582 66.2841 18.2673C66.5368 18.7482 66.6211 19.2007 66.593 19.625C66.5649 20.0493 66.3683 20.3887 66.0033 20.6998C65.6102 21.0392 65.1609 21.2089 64.6554 21.2372C64.1499 21.2372 63.5883 21.0958 62.9986 20.7564C62.4089 20.417 61.8473 19.7947 61.2576 19.1159Z" fill="#F1573F"/>
<path d="M74.6522 24.7162L68.5025 31.7026L67.6039 29.6095L73.1639 23.4717L73.4166 24.0657L65.1889 24.094L64.2903 22.0009L73.557 22.1989L74.6522 24.7162ZM66.7334 23.4434L68.3059 22.7363L70.6366 28.1104L69.0641 28.8175L66.7334 23.4434Z" fill="#F1573F"/>
<path d="M73.6974 33.2017L74.0344 36.9918C74.0906 37.6706 74.0344 38.2646 73.8659 38.7455C73.6974 39.2263 73.4166 39.594 73.0516 39.8486C72.6865 40.1031 72.2372 40.2728 71.7318 40.3011C71.2263 40.3577 70.7489 40.2728 70.3558 40.0465C69.9346 39.8486 69.6257 39.5091 69.3449 39.0849C69.0641 38.6606 68.9237 38.0949 68.8675 37.4726L68.3621 32.0703L72.7988 32.3248L76.7583 31.3066L77.4603 39.1131L75.8316 39.2546L75.2419 32.7491L76.309 33.4562L73.0235 34.3048L69.1483 34.0502L70.0469 33.1451L70.412 37.0201C70.44 37.3878 70.5524 37.6706 70.777 37.8969C70.9736 38.0949 71.2544 38.1798 71.5914 38.1515C71.9283 38.1232 72.1811 37.9818 72.3495 37.7555C72.518 37.5292 72.5742 37.2181 72.5461 36.8221L72.2372 33.3148L73.6974 33.2017Z" fill="#F1573F"/>
<path d="M76.3932 47.542C76.2528 48.2208 76.0282 48.7865 75.6912 49.239C75.3542 49.6916 74.9611 50.0027 74.4837 50.1724C74.0063 50.3421 73.5009 50.3987 72.9393 50.2856C72.3777 50.1724 71.9284 49.9462 71.5633 49.6067C71.1983 49.2673 70.9455 48.8148 70.8051 48.2774C70.6647 47.74 70.6647 47.1177 70.8051 46.4389L71.5352 42.7901L73.2201 43.1296L72.5181 46.6651C72.4338 47.0611 72.4619 47.4005 72.6304 47.6551C72.7708 47.9097 73.0235 48.0794 73.3605 48.1642C73.6975 48.2208 74.0063 48.1642 74.231 47.9945C74.4837 47.7965 74.6241 47.5137 74.7084 47.1177L75.3542 43.7801L76.1405 44.9115L68.5867 43.4124L69.0079 41.3193L77.2637 42.9881L76.3932 47.542Z" fill="#F1573F"/>
<path d="M64.88 53.7646C65.3574 52.8878 65.9471 52.2372 66.6491 51.7564C67.3231 51.2756 68.0532 51.021 68.8394 50.9927C69.6257 50.9644 70.3839 51.1624 71.1421 51.5867C71.9003 52.011 72.4619 52.5766 72.855 53.2555C73.2201 53.9343 73.3885 54.698 73.3324 55.5465C73.2762 56.3951 73.0235 57.2436 72.5461 58.0922C72.0687 58.969 71.479 59.6195 70.777 60.1004C70.1031 60.5812 69.373 60.8358 68.5867 60.8641C67.8005 60.8923 67.0423 60.6943 66.2841 60.2701C65.5259 59.8458 64.9643 59.2801 64.5992 58.573C64.2342 57.8659 64.0657 57.1305 64.1219 56.2819C64.1219 55.49 64.4027 54.6414 64.88 53.7646ZM66.5368 54.7263C66.256 55.2354 66.0875 55.7162 66.0594 56.1971C66.0314 56.6496 66.1156 57.1022 66.3402 57.4699C66.5649 57.8659 66.8738 58.177 67.3231 58.4316C67.7724 58.6861 68.2217 58.7993 68.6429 58.7993C69.0922 58.771 69.4853 58.6296 69.8784 58.375C70.2435 58.0922 70.5805 57.7245 70.8893 57.2153C71.1702 56.7062 71.3386 56.2254 71.3667 55.7445C71.3948 55.292 71.3106 54.8394 71.0859 54.4717C70.8613 54.0757 70.5524 53.7646 70.1031 53.51C69.6538 53.2555 69.2045 53.1423 68.7552 53.1423C68.3059 53.1706 67.9128 53.312 67.5196 53.5666C67.1265 53.8212 66.8176 54.2172 66.5368 54.7263Z" fill="#F1573F"/>
<path d="M62.6055 69.604L61.0049 71.0183L55.4168 64.6542L57.0174 63.24L62.6055 69.604ZM64.5993 63.4663L59.7974 67.7372L58.5619 66.323L63.3637 62.052L64.5993 63.4663ZM67.6039 65.135L66.0033 66.5493L60.4152 60.1852L62.0158 58.771L67.6039 65.135Z" fill="#F1573F"/>
<path d="M54.4339 65.3047L57.6071 73.1679L55.6695 73.9599L52.9176 67.115L53.5353 67.0018L51.5697 75.6287L49.0143 76.6752L45.8412 68.812L47.7788 68.0201L50.5869 74.9781L49.9691 75.0912L51.9628 66.323L54.4339 65.3047Z" fill="#F1573F"/>
<path d="M40.562 77.7217C39.8881 77.7783 39.2703 77.6934 38.7648 77.4954C38.2594 77.2974 37.8382 76.9863 37.5574 76.562C37.2766 76.1378 37.1081 75.6569 37.0519 75.0912C37.0238 74.5255 37.1081 74.0164 37.3608 73.5639C37.5854 73.1113 37.9505 72.7436 38.4279 72.489C38.9052 72.2062 39.4949 72.0648 40.1689 72.0082L43.8475 71.7536L43.9598 73.479L40.3935 73.7336C40.0004 73.7618 39.6915 73.875 39.4669 74.1013C39.2422 74.3275 39.158 74.6104 39.1861 74.9498C39.2141 75.3175 39.3545 75.5721 39.5792 75.7418C39.8319 75.9115 40.1408 75.9963 40.562 75.9681L43.9317 75.7418L43.0331 76.7883L42.4996 69.0666L44.6057 68.9252L45.1673 77.3823L40.562 77.7217Z" fill="#F1573F"/>
<path d="M31.5761 68.1898C32.5309 68.4443 33.3172 68.812 33.963 69.3777C34.6089 69.9151 35.0301 70.5657 35.2828 71.3011C35.5355 72.0365 35.5355 72.8567 35.3109 73.7053C35.0862 74.5538 34.7212 75.2609 34.1596 75.7984C33.598 76.3358 32.924 76.7035 32.1097 76.8732C31.2953 77.0429 30.4248 77.0146 29.442 76.76C28.4872 76.5055 27.701 76.1378 27.0551 75.5721C26.4093 75.0064 25.988 74.3841 25.7353 73.6487C25.4826 72.9133 25.4826 72.0931 25.6792 71.2445C25.9038 70.396 26.2688 69.6889 26.8305 69.1515C27.3921 68.614 28.0941 68.2463 28.8804 68.0766C29.7228 67.9069 30.6214 67.9352 31.5761 68.1898ZM31.0988 70.0566C30.5371 69.9151 30.0317 69.8869 29.5543 69.9717C29.105 70.0566 28.7119 70.2546 28.403 70.5657C28.0941 70.8768 27.8695 71.2728 27.7571 71.7819C27.6448 72.291 27.6448 72.7436 27.7571 73.1679C27.8975 73.5921 28.1222 73.9598 28.4872 74.2427C28.8523 74.5255 29.3016 74.7518 29.8632 74.8932C30.4248 75.0347 30.9303 75.063 31.3796 74.9781C31.8289 74.8932 32.222 74.6952 32.5309 74.3841C32.8398 74.073 33.0644 73.677 33.2048 73.1679C33.3171 72.6587 33.3171 72.2062 33.2048 71.7819C33.0644 71.3577 32.8117 70.99 32.4747 70.7071C32.1378 70.396 31.6604 70.198 31.0988 70.0566Z" fill="#F1573F"/>
<path d="M19.2486 67.2564L18.8835 67.511C18.35 67.1432 17.9288 66.7755 17.6761 66.3796C17.4233 65.9836 17.2829 65.6159 17.2829 65.2199C17.2829 64.8239 17.3953 64.4562 17.6199 64.1168C17.8726 63.7208 18.1815 63.438 18.5466 63.24C18.9116 63.042 19.3328 62.9854 19.7821 63.042C20.2314 63.0985 20.7369 63.2965 21.2704 63.636L26.3811 66.917L23.5169 70.2263L21.8601 74.073L16.9179 70.9051C16.272 70.4808 15.8508 70 15.6823 69.4626C15.5138 68.9252 15.5981 68.3878 15.9351 67.8504C16.1316 67.5392 16.3843 67.313 16.6932 67.115C17.0021 66.917 17.3672 66.8321 17.7884 66.8604C18.2096 66.8321 18.687 66.9735 19.2486 67.2564ZM24.3312 66.2099L24.4716 67.511L20.8773 65.1916C20.5684 64.9936 20.2876 64.9088 20.0068 64.937C19.726 64.9653 19.5294 65.135 19.3328 65.4179C19.1644 65.7007 19.1082 65.9836 19.2205 66.2664C19.3048 66.5493 19.5575 66.8038 19.9225 67.0584L22.871 68.9535L22.0848 70.2263L19.3609 68.4726C19.1082 68.3029 18.8274 68.2464 18.5747 68.2746C18.3219 68.3029 18.0973 68.4726 17.9288 68.7272C17.7884 68.9252 17.7603 69.1515 17.8165 69.3777C17.8726 69.604 18.0411 69.802 18.3219 70L21.5793 72.0931L20.3718 72.5173L21.804 69.1515L24.3312 66.2099Z" fill="#F1573F"/>
<path d="M8.18475 62.448L12.2565 54.0474L13.6886 55.8011L9.95385 63.2117L9.53264 62.7025L17.4795 60.4963L18.9116 62.2783L9.92577 64.5976L8.18475 62.448ZM16.1597 61.5429L14.8399 62.646L11.1613 58.1204L12.4811 57.0173L16.1597 61.5429Z" fill="#F1573F"/>
<path d="M5.3205 58.4882L1.83847 50.4836L3.5514 49.7199L7.03343 57.7245L5.3205 58.4882ZM4.87121 55.094L4.02878 53.1424L10.8805 50.1442L11.7229 52.0958L4.87121 55.094Z" fill="#F1573F"/>
<path d="M9.50456 46.5238L1.13646 47.5703L0.883728 45.4489L8.52173 44.4873L7.70738 45.5621L7.28617 42.2245C7.23001 41.8002 7.0896 41.4891 6.86496 41.2911C6.64031 41.0931 6.33142 41.0082 5.96637 41.0365C5.60132 41.0931 5.32051 41.2345 5.15202 41.4891C4.98354 41.7436 4.89929 42.0831 4.95546 42.5073L5.40475 46.0429L3.74798 46.2409L3.29868 42.5922C3.21444 41.8851 3.24252 41.2911 3.43909 40.7537C3.63565 40.2163 3.88838 39.792 4.28151 39.4809C4.67465 39.1697 5.15202 38.9717 5.71364 38.8869C6.27526 38.802 6.78071 38.8869 7.25809 39.1132C7.70738 39.3394 8.10051 39.6789 8.38132 40.1314C8.69021 40.6123 8.8587 41.1779 8.94294 41.8851L9.50456 46.5238Z" fill="#F1573F"/>
<path d="M9.44841 22.0575C10.0943 22.3969 10.5997 22.8777 10.9648 23.4717C11.3298 24.0657 11.5264 24.7445 11.5545 25.5082C11.5826 26.2719 11.4422 27.0638 11.1333 27.8841C10.7682 28.7892 10.2908 29.5246 9.67306 30.062C9.05528 30.5994 8.38134 30.9388 7.62315 31.0803C6.86497 31.2217 6.0787 31.1086 5.26436 30.7974C4.45001 30.4863 3.80415 30.0055 3.35486 29.3832C2.8494 28.7609 2.56859 28.0538 2.51243 27.2336C2.42819 26.4133 2.56859 25.5365 2.93365 24.6314C3.24254 23.8111 3.69183 23.1323 4.22537 22.5949C4.7589 22.0575 5.37668 21.6898 6.02254 21.52C6.6684 21.3503 7.37042 21.3221 8.07245 21.52L7.28618 23.5283C6.89305 23.4434 6.55608 23.4717 6.21911 23.5848C5.88214 23.698 5.57325 23.896 5.32052 24.2071C5.03971 24.4899 4.81506 24.8859 4.64658 25.3385C4.45001 25.8759 4.36577 26.3567 4.39385 26.8093C4.45001 27.2618 4.59042 27.6578 4.87123 27.9972C5.15203 28.3367 5.51709 28.6195 6.02254 28.8175C6.49992 29.0155 6.97729 29.0721 7.3985 29.0155C7.81972 28.9589 8.21285 28.7609 8.54982 28.4781C8.88679 28.1669 9.1676 27.771 9.36417 27.2336C9.53265 26.781 9.64498 26.3567 9.64498 25.9607C9.64498 25.5648 9.56073 25.1971 9.39225 24.8859C9.22376 24.5748 8.97103 24.3202 8.63406 24.094L9.44841 22.0575Z" fill="#F1573F"/>
<path d="M11.4421 18.2956L13.8009 20.9261L12.4531 20.9827L16.5248 15.9197L17.8727 17.0228L13.0428 23.0475L10.1504 19.8796L6.47183 17.7299L11.2737 11.7336L12.6215 12.8367L8.60598 17.8714L8.38133 16.542L11.4421 18.2956ZM13.7448 14.1378L14.9803 15.1277L11.1333 19.9079L9.92578 18.9179L13.7448 14.1378Z" fill="#F1573F"/>
<path d="M18.5185 16.2591L13.8852 9.15967L15.6262 8L19.6418 14.1661L19.0521 14.3923L19.3329 5.53924L21.6355 4.01186L26.2689 11.1113L24.5278 12.271L20.4561 5.99179L21.0177 5.76551L20.765 14.76L18.5185 16.2591ZM14.0256 6.02008L15.4296 5.08668C15.6543 5.25639 15.8509 5.34124 16.1036 5.34124C16.3282 5.34124 16.5529 5.28467 16.7775 5.14325C17.0022 4.97354 17.1707 4.80384 17.2549 4.60584C17.3391 4.40785 17.3391 4.15329 17.283 3.89873L18.687 2.96533C18.9117 3.64416 18.9117 4.23814 18.687 4.77555C18.4624 5.31296 18.0412 5.76551 17.4515 6.1615C16.8618 6.55748 16.2721 6.75548 15.6824 6.75548C15.0927 6.75548 14.5311 6.50092 14.0256 6.02008Z" fill="#F1573F"/>
<path d="M29.779 7.37775C28.6277 7.68888 27.6729 7.60403 26.9147 7.17976C26.1565 6.75549 25.623 5.96351 25.3141 4.80384L24.7525 2.65421L26.8024 2.1168L27.3079 4.09673C27.4763 4.71899 27.7572 5.11497 28.1503 5.34125C28.5715 5.56753 29.105 5.59581 29.7509 5.42611C30.144 5.31297 30.5091 5.17154 30.9022 4.97355C31.2953 4.77556 31.6885 4.521 32.0535 4.26643L32.6151 5.87866C32.222 6.21808 31.8008 6.52921 31.2953 6.78377C30.8461 7.03833 30.3406 7.23632 29.779 7.37775ZM33.1206 9.21625L30.9865 1.0137L33.0364 0.476288L35.1705 8.67884L33.1206 9.21625Z" fill="#F1573F"/>
<path d="M42.7523 0.419713L46.0939 9.15968L43.8475 9.01825L40.9832 1.21168L41.6291 1.26825L37.8101 8.62227L35.5355 8.48085L39.9723 0.27829L42.7523 0.419713ZM37.9786 6.8969L38.0909 5.17154L43.9036 5.53924L43.7913 7.2646L37.9786 6.8969Z" fill="#F1573F"/>
<path d="M55.8661 9.49908C55.5291 10.1496 55.0518 10.6588 54.4621 10.9982C53.8724 11.3659 53.1984 11.5356 52.4402 11.5639C51.6821 11.5921 50.8958 11.4507 50.0814 11.1113C49.1829 10.7436 48.4528 10.2628 47.9192 9.6405C47.3857 9.01824 47.0487 8.33941 46.9083 7.57572C46.7679 6.81204 46.8802 6.02007 47.2172 5.19981C47.5542 4.37956 48.0315 3.72901 48.6493 3.27645C49.2671 2.8239 49.9972 2.54105 50.8115 2.48448C51.6259 2.42791 52.4964 2.56934 53.395 2.93704C54.2093 3.27645 54.8833 3.70072 55.3887 4.23813C55.9223 4.77554 56.2592 5.3978 56.4558 6.04835C56.6524 6.6989 56.6243 7.40602 56.4277 8.11313L54.4621 7.32116C54.5463 6.92518 54.5182 6.58576 54.4059 6.24634C54.2936 5.90693 54.097 5.5958 53.8162 5.31295C53.5354 5.0301 53.1703 4.80383 52.693 4.63412C52.1594 4.43613 51.6821 4.35127 51.2328 4.37956C50.7835 4.40784 50.3903 4.57755 50.0253 4.8604C49.6883 5.14324 49.4075 5.51094 49.2109 6.02007C49.0144 6.52919 48.9582 6.98175 49.0144 7.40602C49.0705 7.83029 49.239 8.22627 49.5479 8.59397C49.8568 8.93339 50.2499 9.21624 50.7835 9.41423C51.2328 9.58394 51.654 9.69707 52.0471 9.69707C52.4402 9.69707 52.8053 9.61222 53.1142 9.4708C53.4231 9.30109 53.7039 9.04653 53.9004 8.70711L55.8661 9.49908Z" fill="#F1573F"/>
</svg>
