<svg id="lock" viewBox="0 0 24 23" fill="none" xmlns="http://www.w3.org/2000/svg">
<path d="M16.8954 8.81249H9.36049V6.93749C9.35911 6.38079 9.52375 5.8362 9.83354 5.37271C10.1433 4.90921 10.5844 4.54765 11.1007 4.33382C11.6171 4.11999 12.1857 4.06351 12.7343 4.17153C13.283 4.27955 13.7871 4.54721 14.1828 4.94061C14.5369 5.30068 14.7902 5.7467 14.9175 6.23436C14.9484 6.35378 15.0026 6.46597 15.0771 6.56452C15.1516 6.66308 15.2448 6.74606 15.3516 6.80874C15.4583 6.87142 15.5763 6.91257 15.699 6.92983C15.8217 6.9471 15.9466 6.94014 16.0665 6.90936C16.1865 6.87858 16.2992 6.82458 16.3982 6.75045C16.4972 6.67631 16.5806 6.58349 16.6436 6.47728C16.7066 6.37108 16.7479 6.25356 16.7652 6.13145C16.7826 6.00935 16.7756 5.88503 16.7447 5.76561C16.5301 4.95449 16.1045 4.21399 15.5108 3.61874C14.8517 2.9647 14.0127 2.51974 13.0996 2.34003C12.1866 2.16031 11.2406 2.25391 10.381 2.60901C9.52134 2.9641 8.78671 3.56476 8.26982 4.33515C7.75293 5.10553 7.47696 6.0111 7.47677 6.93749V8.81249C6.72737 8.81249 6.00868 9.1088 5.47878 9.63625C4.94888 10.1637 4.65118 10.8791 4.65118 11.625V18.1875C4.65118 18.9334 4.94888 19.6488 5.47878 20.1762C6.00868 20.7037 6.72737 21 7.47677 21H16.8954C17.6448 21 18.3635 20.7037 18.8934 20.1762C19.4233 19.6488 19.721 18.9334 19.721 18.1875V11.625C19.721 10.8791 19.4233 10.1637 18.8934 9.63625C18.3635 9.1088 17.6448 8.81249 16.8954 8.81249ZM17.8372 18.1875C17.8372 18.4361 17.738 18.6746 17.5614 18.8504C17.3847 19.0262 17.1452 19.125 16.8954 19.125H7.47677C7.22697 19.125 6.9874 19.0262 6.81077 18.8504C6.63414 18.6746 6.53491 18.4361 6.53491 18.1875V11.625C6.53491 11.3763 6.63414 11.1379 6.81077 10.9621C6.9874 10.7863 7.22697 10.6875 7.47677 10.6875H16.8954C17.1452 10.6875 17.3847 10.7863 17.5614 10.9621C17.738 11.1379 17.8372 11.3763 17.8372 11.625V18.1875Z" fill="#F1573F"/>
</svg>
