<svg width="30" height="30" viewBox="0 0 30 30" fill="none" xmlns="http://www.w3.org/2000/svg">
<path d="M23.175 11.25L11.1 4.325C10.4466 3.9477 9.70499 3.75005 8.95048 3.75212C8.19598 3.75419 7.45546 3.95592 6.80415 4.3368C6.15284 4.71769 5.61394 5.26416 5.24217 5.92072C4.87041 6.57729 4.67904 7.32054 4.68749 8.075V21.975C4.68749 23.1088 5.13789 24.1962 5.93961 24.9979C6.74133 25.7996 7.82869 26.25 8.96249 26.25C9.71304 26.2487 10.4501 26.0505 11.1 25.675L23.175 18.75C23.8238 18.3745 24.3625 17.835 24.737 17.1855C25.1115 16.5361 25.3086 15.7997 25.3086 15.05C25.3086 14.3003 25.1115 13.5639 24.737 12.9145C24.3625 12.265 23.8238 11.7255 23.175 11.35V11.25ZM21.925 16.4875L9.84999 23.5125C9.57935 23.6659 9.27358 23.7465 8.96249 23.7465C8.65141 23.7465 8.34564 23.6659 8.07499 23.5125C7.80511 23.3567 7.58101 23.1326 7.42522 22.8627C7.26943 22.5928 7.18744 22.2866 7.18749 21.975V8.025C7.18744 7.71337 7.26943 7.40722 7.42522 7.13733C7.58101 6.86744 7.80511 6.64332 8.07499 6.4875C8.34675 6.33645 8.65161 6.25486 8.96249 6.25C9.27316 6.25638 9.57766 6.33787 9.84999 6.4875L21.925 13.4625C22.195 13.6183 22.4192 13.8423 22.5751 14.1122C22.731 14.3821 22.813 14.6883 22.813 15C22.813 15.3117 22.731 15.6179 22.5751 15.8878C22.4192 16.1577 22.195 16.3818 21.925 16.5375V16.4875Z" fill="white"/>
</svg>
