<svg width="24" height="24" viewBox="0 0 24 24" fill="none" xmlns="http://www.w3.org/2000/svg">
<path d="M9.92057 7.40784L9.92087 7.4085C10.0521 7.70101 10.2695 8.23042 10.4429 8.65278L10.4464 8.66113C10.5149 8.82793 10.5766 8.97835 10.6248 9.09409C10.6489 9.15202 10.669 9.19992 10.6846 9.23614C10.6984 9.26826 10.7054 9.28368 10.7074 9.28814C10.7079 9.28929 10.7081 9.28971 10.708 9.28949C10.8081 9.48889 10.9103 9.81202 10.7303 10.181L9.92057 7.40784ZM9.92057 7.40784C9.7998 7.13978 9.64311 6.92824 9.42228 6.80024M9.92057 7.40784L9.42228 6.80024M13.254 13.9651C13.1998 13.9381 13.1319 13.9089 13.0693 13.8818L13.0602 13.8779L13.059 13.8774C12.7137 13.7285 12.0551 13.4443 11.2911 12.7641L11.2902 12.7633C10.6439 12.1906 10.1811 11.4834 10.0001 11.183C10.0873 11.0947 10.1808 10.9817 10.2563 10.8905L10.2652 10.8796C10.3145 10.8201 10.359 10.7664 10.4007 10.7186L10.4008 10.7185C10.5585 10.5373 10.6308 10.3873 10.6992 10.2452L10.703 10.2373L10.703 10.2372L10.7302 10.181L9.95442 11.1106L9.92569 11.1272L9.92543 11.1274L9.52398 11.3601M13.254 13.9651L13.2449 13.9836C13.2493 13.9784 13.254 13.973 13.2587 13.9675M13.254 13.9651C13.254 13.9651 13.254 13.9651 13.254 13.9651L13.2447 13.9838C13.2325 13.998 13.2213 14.011 13.2114 14.0225L13.2114 14.0225C13.1986 14.0374 13.1989 14.0335 13.2135 14.0243C13.2135 14.0243 13.2135 14.0243 13.2135 14.0243C13.214 14.0239 13.2146 14.0236 13.2151 14.0232C13.219 14.0208 13.2236 14.0183 13.2288 14.0157L13.2212 14.0309L13.2212 14.031L13.0313 14.4128M13.254 13.9651C13.2556 13.9659 13.2572 13.9667 13.2587 13.9675M13.2587 13.9675C13.2994 13.9874 13.3216 13.9944 13.3296 13.9965C13.3308 13.9968 13.3313 13.9969 13.3313 13.9969C13.3313 13.9969 13.3171 13.994 13.2933 13.9968C13.2792 13.9985 13.2643 14.0018 13.2498 14.007C13.242 14.0097 13.235 14.0127 13.2289 14.0157L13.2213 14.031L13.2213 14.031L13.0313 14.4128M13.2587 13.9675C13.4478 13.7472 13.85 13.2737 13.9909 13.0664M13.0313 14.4128C13.2886 14.5408 13.4419 14.5211 13.5903 14.3488C13.7387 14.1764 14.2334 13.6003 14.4065 13.3443M13.0313 14.4128C12.9895 14.392 12.9325 14.3674 12.8621 14.337C12.4998 14.1807 11.783 13.8714 10.9586 13.1375C10.1919 12.4581 9.67246 11.6161 9.52398 11.3601M13.9909 13.0664C13.9902 13.0675 13.9894 13.0686 13.9887 13.0698L14.4065 13.3443M13.9909 13.0664C13.9914 13.0656 13.9919 13.0649 13.9924 13.0641L14.4065 13.3443M13.9909 13.0664C14.1287 12.8582 14.3291 12.6878 14.6114 12.6545C14.8384 12.6278 15.0465 12.7055 15.1556 12.7462L15.1601 12.7479L15.1602 12.7479C15.3062 12.8024 15.7095 12.9935 16.0753 13.1695C16.4554 13.3525 16.8383 13.5406 16.9691 13.6057L16.9692 13.6057C17.0162 13.6291 17.0606 13.6504 17.105 13.6717L16.8888 14.1226M14.4065 13.3443C14.5747 13.0883 14.7478 13.1277 14.9853 13.2163C15.2227 13.3049 16.4891 13.9253 16.7463 14.0533C16.7972 14.0786 16.8447 14.1014 16.8888 14.1226M9.52398 11.3601L9.92535 11.1273L9.92561 11.1271L9.95439 11.1105L10.0237 10.3901C9.97704 10.4437 9.92845 10.5024 9.88004 10.5609C9.7949 10.6638 9.71031 10.766 9.6378 10.8382C9.5092 10.9661 9.37559 11.1041 9.52398 11.3601ZM16.8888 14.1226L17.105 13.6717L17.1172 13.6776C17.1965 13.7156 17.292 13.7613 17.3733 13.811C17.4583 13.8629 17.5836 13.9511 17.671 14.0986M16.8888 14.1226C17.0678 14.2084 17.1894 14.2667 17.241 14.3537M17.671 14.0986L17.0926 15.5747C17.3053 14.9741 17.3053 14.462 17.241 14.3537M17.671 14.0986C17.7506 14.2327 17.7671 14.3872 17.7733 14.4664C17.7817 14.5724 17.7799 14.6935 17.7689 14.8222C17.7467 15.0808 17.6847 15.4008 17.564 15.7416L17.5627 15.7451C17.3959 16.2055 16.9606 16.575 16.5892 16.8143C16.2114 17.0576 15.7511 17.2605 15.3983 17.2936M17.671 14.0986C17.671 14.0985 17.671 14.0985 17.671 14.0984L17.241 14.3537M17.241 14.3537L15.3983 17.2936M15.3983 17.2936C15.361 17.2971 15.3228 17.3017 15.2756 17.3074L15.2156 16.811L15.2756 17.3074C15.0358 17.3364 14.7353 17.3716 14.2298 17.2868C13.7427 17.2051 13.0761 17.0145 12.0764 16.621C9.50634 15.6102 7.8348 13.1391 7.50101 12.6457L7.49536 12.6373L7.90949 12.3572L7.49536 12.6373L7.46468 12.5921L7.45633 12.58C7.45582 12.5793 7.45545 12.5788 7.4552 12.5785L7.45095 12.5728L7.45091 12.5727L7.45086 12.5726C7.37173 12.4668 7.08925 12.0888 6.82599 11.5685C6.56611 11.0549 6.30324 10.361 6.30324 9.62703C6.30324 8.2417 6.99956 7.50203 7.29366 7.1912L7.29366 7.1912C7.31104 7.17284 7.32488 7.1582 7.337 7.14513C7.337 7.14513 7.337 7.14513 7.33701 7.14513L15.3983 17.2936ZM9.42228 6.80024C9.21133 6.67796 9.00436 6.67283 8.90968 6.67048M9.42228 6.80024L8.90968 6.67048M8.90968 6.67048C8.90658 6.6704 8.90359 6.67033 8.90073 6.67025L8.90968 6.67048ZM7.51632 20.1818C7.40481 20.1214 7.27452 20.1056 7.15182 20.1377L2.7122 21.2973L3.89677 16.9975C3.93238 16.8682 3.91459 16.7301 3.8474 16.6141C3.01909 15.1839 2.58345 13.5622 2.58405 11.9117V11.9115C2.58405 6.72474 6.82978 2.50018 12.0419 2.50018C14.5761 2.50018 16.9475 3.48182 18.7335 5.25947C20.5189 7.0366 21.5 9.40045 21.5 11.9164C21.5 17.1031 17.2542 21.3277 12.042 21.3277H12.0371C10.4535 21.3277 8.89788 20.9301 7.51632 20.1818Z" fill="#F1573F" stroke="#F1573F" stroke-linejoin="round"/>
</svg>
