<svg width="711" height="601" viewBox="0 0 711 601" fill="none" xmlns="http://www.w3.org/2000/svg">
<path d="M100.318 422.44C49.003 410.785 -1.14631 462.066 0.0199537 514.511C0.0199537 556.468 29.1765 597.259 68.8293 612.41C108.482 627.561 156.299 615.906 185.455 584.439C200.617 568.123 212.279 544.813 233.272 537.821C260.096 528.497 291.585 548.31 318.409 537.821C354.563 525.001 354.563 474.886 348.732 436.426C345.233 414.282 340.568 389.807 347.566 368.829C354.563 346.685 376.722 328.038 398.881 333.865C419.874 338.527 430.37 359.505 439.701 379.318C451.363 403.793 463.026 429.433 482.852 448.08C502.679 466.727 533.001 477.217 557.493 465.562C597.146 448.08 599.478 392.138 629.801 361.836C667.121 323.376 737.097 333.865 772.085 293.074C789.579 272.095 793.078 244.124 796.576 217.319C802.408 163.708 807.073 104.269 779.083 58.8161C751.092 13.3632 690.447 -9.94604 639.131 4.03949C625.136 8.70133 611.141 15.6941 600.645 26.1832C585.483 44.8306 581.984 70.4708 581.984 93.78C581.984 121.751 585.483 148.557 591.315 176.528C597.146 204.499 607.642 232.47 608.808 261.606C609.975 290.743 600.645 322.21 576.153 338.527C545.83 359.505 502.679 349.016 470.023 330.369C437.368 311.721 408.211 284.916 372.057 275.592C356.896 270.93 338.236 270.93 327.739 282.585C320.742 289.577 318.409 298.901 317.243 308.225C307.913 352.512 326.573 471.389 279.923 477.217C216.945 483.044 156.299 435.26 100.318 422.44Z" fill="#F15A29"/>
</svg>
