<svg width="385" height="319" viewBox="0 0 385 319" fill="none" xmlns="http://www.w3.org/2000/svg">
<path d="M427.477 317.845C451.063 316.073 473.582 300.143 479.421 277.651C488.904 244.276 459.928 211.558 427.658 198.071C395.749 185.673 359.467 185.608 326.83 174.661C293.104 164.075 261.573 141.878 240.937 112.442C212.694 74.6442 197.174 20.5362 152.208 5.21155C126.461 -3.18254 95.9799 -0.333558 71.2942 9.05899C48.4252 16.64 27.7233 30.7581 13.5444 49.9692C-7.17944 78.6054 -1.43907 121.444 21.7417 147.619C44.1946 175.243 79.732 187.647 116.008 191.342C150.834 194.308 186.76 189.654 221.597 185.361C242.644 183.221 264.779 180.72 282.542 190.552C294.505 197.469 302.834 208.01 311.163 218.55C341.944 256.716 370.504 324.639 427.477 317.845Z" fill="#F1573F"/>
</svg>
