<svg width="663" height="435" viewBox="0 0 663 435" fill="none" xmlns="http://www.w3.org/2000/svg">
<path d="M564.011 214.045C618.464 221.659 667.967 162.018 661.779 104.916C656.829 59.2346 623.415 17.3596 580.1 4.67024C536.785 -8.01914 487.282 9.74598 460.055 46.5452C445.205 66.8482 435.304 92.2269 414.265 102.378C387.039 115.068 352.387 97.3027 323.923 109.992C286.796 127.757 290.508 182.321 301.647 222.927C307.834 247.037 314.022 272.416 309.072 296.526C302.884 320.636 281.845 343.477 258.332 339.67C236.055 335.863 222.442 314.291 211.304 293.988C196.453 268.609 182.84 241.962 159.326 222.927C137.05 205.162 103.636 196.28 78.8842 210.238C39.282 233.079 40.5195 293.988 12.0555 329.518C-23.8341 373.931 -99.3258 370.124 -131.503 418.344C-147.591 442.454 -148.829 474.177 -150.066 503.363C-152.541 563.003 -152.541 626.45 -117.889 673.4C-84.4749 720.351 -18.8838 740.654 35.5693 719.082C50.4201 712.737 65.2709 703.855 73.9339 691.165C88.7847 669.593 90.0223 641.677 87.5472 616.298C85.072 585.844 78.8842 556.658 70.2212 527.472C60.3206 497.018 47.945 467.832 44.2323 437.378C40.5195 405.654 47.945 371.393 71.4588 351.09C102.398 325.711 148.188 333.325 184.078 349.821C219.967 367.586 253.381 392.965 291.746 400.579C307.834 403.117 327.636 401.848 338.774 387.889C344.962 380.276 346.199 368.855 347.437 358.704C353.625 309.215 322.685 183.59 372.188 172.17C435.304 158.212 503.37 205.162 564.011 214.045Z" fill="#F1573F"/>
</svg>
